# xmcd
#
# Track frame offsets:
#	150
#	13500
#	27585
#	44643
#	61887
#	78123
#	97368
#	113427
#	130437
#	152974
#	169570
#	184960
#
# Disc length: 2848 seconds
#
# Revision: 1
# Processed by: cddbd v1.5.2PL0 Copyright (c) Steve Scherf et al.
# Submitted via: audiograbber 1.83.01
#
DISCID=9e0b1e0c
DTITLE=Axixic - Dancing On The Moon
DYEAR=2014
DGENRE=Country
TTITLE0=Dancing On The Moon
TTITLE1=Ghosts Of Huron
TTITLE2=Forgetting Me
TTITLE3=Murky Brown
TTITLE4=Flow Sweet River
TTITLE5=Someday I Won't Live Here Anymore
TTITLE6=Lying In My Arms
TTITLE7=He'll Never Know
TTITLE8=Go Gently
TTITLE9=A Fine Line
TTITLE10=Stay
TTITLE11=2 Out Of 4
EXTD=
EXTT0=
EXTT1=
EXTT2=
EXTT3=
EXTT4=
EXTT5=
EXTT6=
EXTT7=
EXTT8=
EXTT9=
EXTT10=
EXTT11=
PLAYORDER=
